<svg id="レイヤー_1" data-name="レイヤー 1" xmlns="http://www.w3.org/2000/svg" viewBox="0 0 364.15 83.75"><title>logo</title><path d="M65.42,77.08c-.09-.64-.19-1.3-.28-2a113.94,113.94,0,0,0-3.13-15c-1.44-5.55-2.59-9.93-1.88-13.54a45.52,45.52,0,0,1,1.85-6c1.78-5,4-11.25,2.78-17.78-.79-4.28-3.32-8.63-7.32-12.6a43.94,43.94,0,0,0-12-8.32c-5.06-2.37-7.15-1.59-8-.52-1.06,1.32-.61,3.58,1.18,5.9a23.86,23.86,0,0,0,3.52,3.17c1,.8,2.1,1.7,3.23,2.69a22.09,22.09,0,0,0-7-2.76C35.9,6,29.54-.26,26.33,0a2.07,2.07,0,0,0-1.84,1.46c-1.22,3.39-.29,8.89,0,10.48a22.17,22.17,0,0,0-12,14.74c-.77,0-7.23,0-10.66,2a2,2,0,0,0-1,2C1,32.66,3.64,34.93,5.83,36.5a33.39,33.39,0,0,0,7.88,4.27,21.84,21.84,0,0,0,5.39,7.48c-3.94-.51-7.2-.49-12,2.71-3,2-5.49,6.87-6.56,11.62a.73.73,0,0,0-.06.29,15.46,15.46,0,0,0,0,7.52C1.27,73,2.74,74.54,4.6,74.8c1.22.17,3.65-.12,6.19-4,1.32-2,2.94-3,4.56-2.9a4.82,4.82,0,0,1,3.78,3A21.53,21.53,0,0,1,20,73.42c1,3.27,2.35,7.64,8.27,7.64A13.83,13.83,0,0,0,29.7,81a2.76,2.76,0,0,0,.62,1.76,2.88,2.88,0,0,0,3,.63c1.55-.36,2.51-1.44,3.62-2.7a21.14,21.14,0,0,1,2.37-2.39,14.23,14.23,0,0,1,6.63-3l.63-.07c2.13-.23,5.7-.63,8.4,2.24l.43.46c2.8,3,5.46,5.82,7.75,5.82a2.58,2.58,0,0,0,.73-.1C66.26,82.94,65.9,80.48,65.42,77.08Z" style="fill:#a24d25"/><path d="M56.15,62.83c-1.11,3.49-4.08,5.64-8.58,6.24a6.87,6.87,0,0,1-5.85-1.52c-3.57-3.32-3.26-10.85-3.08-14.08a22,22,0,0,0,11.78-6.92C55.36,51.3,57.71,57.94,56.15,62.83Z" style="fill:#fff"/><path d="M63.45,82.22c-1.56.46-4.56-2.74-7-5.31L56,76.46c-3.21-3.41-7.39-2.95-9.64-2.7l-.6.06a15.85,15.85,0,0,0-7.45,3.32,22.38,22.38,0,0,0-2.53,2.55c-1,1.15-1.75,2-2.84,2.23-.54.12-1.24.19-1.55-.16s-.33-1.66.19-3.06c.68-1.84,3-6.5,3.94-8.25a3.34,3.34,0,0,0,.3-.59l0-.09a.74.74,0,0,0,.08-.26c0-.13.08-.27.11-.41a15.73,15.73,0,0,0,.33-5.51,19.64,19.64,0,0,0-.21-3.29,3.62,3.62,0,0,0-2.67-2.65,7.72,7.72,0,0,0-3.77-.06c-.59.13-2.38.51-2.43,1.79,0,1,1.17,1.8,2.32,2.16l1.4.41a19.35,19.35,0,0,1,3.62,1.24,1,1,0,0,1,.27.55.73.73,0,0,0,0,.1,12.7,12.7,0,0,1-.32,4.94,3.73,3.73,0,0,1-.14.47l-.24.46c-.11.14-.21.2-.28.19s-.48-.36-.48-.83a5.13,5.13,0,0,0-3.73-4.59c-.59-.1-1.15-.15-1.7-.19a6.16,6.16,0,0,1-4.4-1.65,4,4,0,0,1-1.19-3,3.67,3.67,0,0,1,1.13-2.68c1.63-1.39,5.16-2.1,11.11-2.92l.09,0a22.42,22.42,0,0,0,2.33-.22c-.19,3.6-.37,11.24,3.57,14.9a7.74,7.74,0,0,0,5.47,2,12.08,12.08,0,0,0,1.58-.11c5-.66,8.51-3.24,9.8-7.26,1.73-5.43-.81-12.74-6.18-17.88a22,22,0,0,0,4.34-17c-.1-.63-.23-1.24-.38-1.85a.73.73,0,0,0,0-.35c-1-7.92-7.82-13.39-12.31-17a24,24,0,0,1-3.28-2.92C38.5,4.61,38,2.94,38.59,2.21s2.49-.82,6.23.93a42.41,42.41,0,0,1,11.58,8C60.19,14.93,62.57,19,63.3,23c1.13,6.15-.92,11.92-2.72,17a46.47,46.47,0,0,0-1.91,6.24c-.77,3.95.41,8.47,1.9,14.2a112.71,112.71,0,0,1,3.09,14.79c.09.73.19,1.43.28,2C64.45,80.76,64.52,81.91,63.45,82.22Z" style="fill:#eba514"/><path d="M13.6,35.17a20.63,20.63,0,0,1,0-6.59c2.32.34,9.41,1.43,12.82,2.31a6.09,6.09,0,0,0,1.53.21A3.82,3.82,0,0,0,31,29.69a5.31,5.31,0,0,0,.31-5.64c-1.18-2.33-4-9-5-11.29A20.59,20.59,0,1,1,37.19,52.24,20.59,20.59,0,0,1,13.6,35.17Z" style="fill:#fff"/><circle cx="34.44" cy="32.69" r="3.64" transform="translate(-4.74 5.86) rotate(-9.1)" style="fill:#a24d25"/><ellipse cx="21.59" cy="35.94" rx="3.47" ry="5.14" transform="translate(-18.78 24.61) rotate(-43.33)" style="fill:#a24d25"/><path d="M46.4,54.93A4,4,0,0,1,49,50.68a3.78,3.78,0,0,1,4.87,2.25c.94,2.38.34,4.66-.36,6.8s-2.17,5.77-2.57,6.68h0c-.92-.4-4.53-2.1-6.42-3.14s-4-2.34-4.9-4.73a3.79,3.79,0,0,1,2-5,4,4,0,0,1,4.75,1.36Z" style="fill:#a24d25"/><path d="M46.69,60.37a.75.75,0,0,1-.51,1.08c-.59.23-1,.1-1.17-.42l-1.66-4.21a.75.75,0,0,1,.51-1.08c.55-.22.95-.14,1.17.42Zm1.47-5.64a.76.76,0,0,1,.51-1.08c.59-.23,1-.11,1.17.42l1.08,2.75c.67,1.7,1,3.22.24,4.75a5.28,5.28,0,0,1-1.85,2.12,1,1,0,0,1-1.19-.58c-.16-.42,0-.61.54-1.17a3.61,3.61,0,0,0,.67-4.23Z" style="fill:#fff"/><ellipse cx="36.04" cy="19.63" rx="3.47" ry="5.14" transform="translate(-3.65 30.08) rotate(-43.33)" style="fill:#a24d25"/><path d="M25.89,2a.6.6,0,0,1,.57-.48c2-.16,7.19,4.38,10,8.49q-1-.12-2.07-.14a23.74,23.74,0,0,0-3.43-4.42C29.45,4,28.22,3.53,27.28,4c-1.6.83-.89,3.87-.38,6.09.07.31.14.59.18.81q-.6.19-1.18.42C25.58,9.55,24.88,4.79,25.89,2Z" style="fill:#eba514"/><path d="M28.51,10.51c0-.22-.1-.46-.17-.74a22.24,22.24,0,0,1-.55-3c-.1-1.25.16-1.44.17-1.44.48-.25,2.38,1.09,4.66,4.54q-1.09.07-2.19.24C29.78,10.22,29.14,10.35,28.51,10.51Z" style="fill:#fff"/><path d="M17.25,19.84A20.48,20.48,0,0,1,25,13.35c1,2.37,3.82,9,5,11.37a3.87,3.87,0,0,1-.14,4,2.8,2.8,0,0,1-3.09.69c-3.49-.9-10.48-2-12.9-2.33A20.56,20.56,0,0,1,17.25,19.84Z" style="fill:#eba514"/><path d="M12.13,35.37c-3.95-1.64-5.67-3.31-5.51-3.84,0,0,.15-.3,1.39-.43a22.26,22.26,0,0,1,3,0l.81,0A22.3,22.3,0,0,0,12.13,35.37Z" style="fill:#fff"/><path d="M2.25,30.55A.54.54,0,0,1,2.58,30c2.78-1.67,8.18-1.8,9.59-1.8q-.13.74-.2,1.49l-.85,0c-2.28-.1-5.39-.24-5.92,1.48-.31,1,.38,2.14,2,3.34a24.18,24.18,0,0,0,5.23,2.67q.22.91.51,1.8C8.53,37,2.48,32.65,2.25,30.55Z" style="fill:#eba514"/><path d="M7.93,52.2c5-3.35,8.1-2.9,12.75-2.23l.73.11a22,22,0,0,0,7.5,3.33,23.14,23.14,0,0,0-4.13,1.13C21,52,17.16,51.15,13.36,52c-4.39,1-7.82,4.09-10,6.66C4.57,55.69,6.23,53.33,7.93,52.2Z" style="fill:#eba514"/><path d="M22.66,63.7A7.55,7.55,0,0,0,28,65.75c.54,0,1,.08,1.56.17A3.65,3.65,0,0,1,32,69.06a2.32,2.32,0,0,0,1.43,2.23c-.41.81-.88,1.76-1.35,2.72-2.25.06-5.39-3.34-8.42-6.63C20.26,63.63,17,60.1,14,60.1c-4.81,0-8.4,4-11.58,7.57l-.85.94A17,17,0,0,1,2,63.08c.71-1.17,5.14-8.09,11.73-9.61a12.52,12.52,0,0,1,9.57,1.86,5.93,5.93,0,0,0-.6.45A5.16,5.16,0,0,0,21,59.54,5.53,5.53,0,0,0,22.66,63.7Z" style="fill:#fff"/><path d="M21.41,73a22.56,22.56,0,0,0-.92-2.63,6.28,6.28,0,0,0-5-3.91c-2.19-.17-4.29,1.09-5.92,3.56C8,72.33,6.3,73.54,4.81,73.33c-1.18-.16-2.16-1.22-2.81-3,.5-.54,1-1.1,1.53-1.69,3-3.32,6.32-7.08,10.47-7.08,2.36,0,5.54,3.45,8.61,6.79s6.09,6.62,8.82,7.06c-.51,1.09-1,2.09-1.21,2.76a9.85,9.85,0,0,0-.38,1.28C23.65,80.26,22.56,76.73,21.41,73Z" style="fill:#eba514"/><path d="M34.89,61.63a28.09,28.09,0,0,0-3.42-1.11l-1.37-.4a3,3,0,0,1-1.22-.65A3.42,3.42,0,0,1,30.09,59c1.41-.3,4.2-.36,4.68,1.61A6.56,6.56,0,0,1,34.89,61.63Z" style="fill:#fff"/><path d="M29.84,46.42a15.29,15.29,0,0,0,3.7.46A15.46,15.46,0,0,0,48.81,29a15.34,15.34,0,0,0-2.15-5.74.74.74,0,0,0-1.26.79A14,14,0,0,1,30.2,45a.74.74,0,0,0-.36,1.44Z" style="fill:#a24d25"/><circle cx="20.5" cy="35.26" r="1.11" style="fill:#fff"/><circle cx="23.63" cy="36.61" r="0.73" style="fill:#fff"/><circle cx="34.96" cy="18.95" r="1.11" style="fill:#fff"/><circle cx="38.08" cy="20.31" r="0.73" style="fill:#fff"/><path d="M98.47,58.45c0,2.7-1.32,4.5-4.8,4.5s-5.1-1.44-5.1-4.5V33.61c0-2.52,1.14-4.5,4.8-4.5,3.24,0,5.1,1.2,5.1,4.5Zm18.84-25.8c0-2.64,1.32-4.5,4.8-4.5s5.1,1.38,5.1,4.5v16.2c0,10-1.44,18.42-8.34,24.72-4.14,3.78-10.92,7.08-13.68,7.08-3.18,0-4.92-3-4.92-5.34s1.32-3.06,5.1-4.86c10-4.68,11.94-12.36,11.94-20.22Z" style="fill:#a24d25"/><path d="M161.65,37.33c0,2.4-2.52,17.46-9.54,31.32-4,8-5.58,8.82-7.92,8.82s-5.58-1.86-5.58-5.1c0-1.38.54-2.28,1.62-4A80.23,80.23,0,0,0,151,39.67c.9-5,1.26-7,4.86-7C156.67,32.65,161.65,32.77,161.65,37.33Zm22.08,7.86c5.52,12.3,8.16,23.46,8.16,26,0,4.56-4.62,5.1-5.82,5.1-3.54,0-4.2-2.7-5.1-6.36a116.24,116.24,0,0,0-9.12-26.64c-2.22-4.56-2.46-5-2.46-6,0-2.28,2.4-4.5,5.28-4.5C176.83,32.83,178.21,32.95,183.73,45.19Z" style="fill:#a24d25"/><path d="M205.69,42.55c2,0,2.7,1.14,4.26,3.78,3.54,5.88,3.66,6.84,3.66,7.8,0,2.4-2.58,3.9-4.68,3.9-1.92,0-2.22-.6-4.32-4.62-.42-.84-2.58-4.44-3-5.16a4,4,0,0,1-.54-1.86C201.07,43.63,204.37,42.55,205.69,42.55Zm27.24,25.92c-7.44,9.36-17.88,12.84-20,12.84s-4.08-2.28-4.08-4.68c0-2.22.84-2.58,4.68-4.32,5.7-2.52,16.38-8,19.5-25.5.66-3.6,1.08-5.76,4.38-5.76a6.6,6.6,0,0,1,3.42,1.08,3.33,3.33,0,0,1,1.26,2.76C242.11,46.09,240.43,58.93,232.93,68.47Zm-15.18-28.8c2,0,2.82,1.08,4.68,4.5,1.08,1.92,3,5.64,3,7.26,0,2.76-2.82,4-4.56,4-2.1,0-2.52-.9-4.32-4.74a50.59,50.59,0,0,0-2.64-5,4.41,4.41,0,0,1-.72-2.22C213.19,41,215.71,39.67,217.75,39.67Z" style="fill:#a24d25"/><path d="M264.73,46.39a105.35,105.35,0,0,0,19.32-6.54c3-1.38,3.36-1.5,4.56-1.5a5,5,0,0,1,4.68,5.1c0,2.46-1.38,3.36-4.92,5-6.54,3-18,6.3-23.64,7.44v8.46c0,4.68.72,5.22,13.62,5.22,1.08,0,6,0,11.76-.24.78-.06,4.74-.24,5.7-.24,1.5,0,4.74,0,4.74,4.44,0,3.9-2.76,4.62-3.48,4.8-2.1.54-6.36.6-18.54.6-12.9,0-23.58,0-23.58-12.54V32.53c0-3.18,1.56-4.44,5-4.44,4.56,0,4.74,3.06,4.74,4.44Zm41.94-14a8.16,8.16,0,1,1-8.16-8.16A8.17,8.17,0,0,1,306.67,32.41Zm-12.24,0a4.08,4.08,0,1,0,4.08-4.08A4.08,4.08,0,0,0,294.43,32.41Z" style="fill:#a24d25"/><path d="M359.11,50c1.38,0,5,.06,5,4.74s-3.72,4.56-5,4.56h-43c-1.26,0-5,0-5-4.5,0-4.68,3.42-4.8,5-4.8Z" style="fill:#a24d25"/><path d="M106.51,17.27a1.26,1.26,0,0,1,1.39,1.37A1.3,1.3,0,0,1,106.51,20H98.15c-3,0-4-1.41-4.39-1.9a6.8,6.8,0,0,1-1,1.27c-.57.63-.89.87-1.44.87a1.73,1.73,0,0,1-1.6-1.73c0-.68.25-.89,1.12-1.54.42-.3.93-.76,1.18-1V12.62c0-.13,0-.49-.34-.49H91.1a1.18,1.18,0,0,1-1.29-1.31c0-1,.36-1.48,1.41-1.48h1.22c2,0,2.34.36,2.34,2.36v3.48c.29,1.92,2.11,2.11,3.44,2.11Zm-15-14.67c.3,0,.74,0,2.55,1.63,1.14,1,1.33,1.29,1.33,1.8a1.51,1.51,0,0,1-2.79.89c-.49-.51-1.2-1.12-1.67-1.52C90.12,4.75,90,4.51,90,4A1.62,1.62,0,0,1,91.52,2.61Zm6.93,4.25c-.87-.66-.91-.8-.91-1.08a.73.73,0,0,1,.25-.57H96.5c-.4,0-1.18,0-1.18-1.12A1,1,0,0,1,96.5,3h8.34c.7,0,1.8,0,1.8,1.39,0,.85-.38,1.31-2.51,2.49h.7c1.9,0,2.36.32,2.36,2.28v5.43c0,2-.46,2.3-2.49,2.3-.95,0-1.77,0-1.77-1.2a1,1,0,0,1,.53-1c.1,0,.15,0,.63,0,.21,0,.38,0,.38-.44V13.8h-1.86v1.9c0,1-.55,1.25-1.42,1.25-1.12,0-1.25-.7-1.25-1.25V13.8h-1.8v1.8c0,.95-.46,1.27-1.31,1.27a1.2,1.2,0,0,1-1.37-1.33V9.14c0-2.07.53-2.28,2.43-2.28Zm1.48,2.7V8.74H98.49a.33.33,0,0,0-.36.36v.46Zm0,1.71h-1.8v.82h1.8Zm.19-6.06c.3.23,1.18.95,1.27,1,.21-.13,1.29-.78,1.29-.93s-.13-.09-.19-.09Zm2.49,4.35h1.86V9.1a.32.32,0,0,0-.34-.36h-1.52Zm1.86,1.71h-1.86v.82h1.86Z" style="fill:#a24d25"/><path d="M116.92,3a1.23,1.23,0,0,1,1.41,1.29c0,1.16-.84,1.31-1.41,1.31h-6a1.22,1.22,0,0,1-1.41-1.29c0-1.22.89-1.31,1.41-1.31Zm-6.48,6.1c0-2,.34-2.41,2.41-2.41h2.47c2,0,2.39.4,2.39,2.41V12c0,2-.38,2.39-2.39,2.39H113.1a13.45,13.45,0,0,1-.59,4.35c-.36,1.23-.74,1.61-1.54,1.61A1.38,1.38,0,0,1,109.5,19a2.49,2.49,0,0,1,.28-1.1,11.35,11.35,0,0,0,.67-4.16Zm2.74,2.74h1.54a.37.37,0,0,0,.4-.42V9.6a.35.35,0,0,0-.4-.4h-1.14a.35.35,0,0,0-.4.4ZM126.29,8.1a1.26,1.26,0,0,1,1.31,1.42c0,.89-.48,1.41-1.14,1.41h-.86v8.36c0,.38,0,1.21-1.31,1.21s-1.48-.51-1.48-1.21V10.93h-1.52a17.77,17.77,0,0,1-.85,6.21c-.29.76-1.37,3.25-2.64,3.25a1.63,1.63,0,0,1-1.63-1.52c0-.49.19-.7.57-1.1,1.8-1.88,1.8-5.43,1.8-6.63v-6c0-1.23.36-1.63,2-1.8a30.06,30.06,0,0,0,3.89-.53,6.66,6.66,0,0,1,1.48-.27,1.39,1.39,0,0,1,1.29,1.5c0,1.18-.82,1.37-2.85,1.65-.84.11-1.63.17-2.51.23-.4,0-.53.09-.53.46V8.1Z" style="fill:#a24d25"/><path d="M133.83,12.69c0,.86-.42,1.42-1.52,1.42s-1.61-.46-1.61-1.42V4.83c0-.8.36-1.42,1.52-1.42s1.61.38,1.61,1.42Zm6-8.17c0-.84.42-1.42,1.52-1.42s1.61.44,1.61,1.42V9.65c0,3.17-.46,5.83-2.64,7.83A9.17,9.17,0,0,1,136,19.72,1.65,1.65,0,0,1,134.4,18c0-.78.42-1,1.61-1.54,3.17-1.48,3.78-3.91,3.78-6.4Z" style="fill:#a24d25"/><path d="M153.84,6a30.77,30.77,0,0,1-3,9.92c-1.27,2.53-1.77,2.79-2.51,2.79a1.77,1.77,0,0,1-1.77-1.62,2.3,2.3,0,0,1,.51-1.27,25.41,25.41,0,0,0,3.4-9.08c.28-1.6.4-2.22,1.54-2.22C152.26,4.52,153.84,4.56,153.84,6Zm7,2.49a30.45,30.45,0,0,1,2.58,8.25c0,1.44-1.46,1.61-1.84,1.61-1.12,0-1.33-.85-1.61-2a36.86,36.86,0,0,0-2.89-8.43c-.7-1.44-.78-1.6-.78-1.9A1.62,1.62,0,0,1,158,4.58C158.65,4.58,159.08,4.62,160.83,8.5Z" style="fill:#a24d25"/><path d="M170.41,14.56c0,1.48.27,1.65,4.29,1.65.57,0,2,0,3.74-.08.28,0,1.54-.09,1.8-.09.47,0,1.5,0,1.5,1.42a1.5,1.5,0,0,1-1.44,1.6c-.89.11-4.26.11-5.55.11-4.07,0-7.45,0-7.45-4V4.49c0-.51.08-1.41,1.5-1.41,1.1,0,1.6.42,1.6,1.41V8.88a34.57,34.57,0,0,0,6.06-2.05c1-.44,1.08-.47,1.44-.47A1.6,1.6,0,0,1,179.41,8c0,.65-.19,1.06-2.51,2a45.43,45.43,0,0,1-6.5,1.94Zm10.85-8.26c0,.59-.63.84-1,.84s-.51-.25-.78-.78a12.39,12.39,0,0,0-1.27-2,.91.91,0,0,1-.25-.55.93.93,0,0,1,1.12-.8C179.66,3.18,181.26,5.82,181.26,6.29Zm2.43-1.12c0,.61-.63.84-1,.84s-.53-.27-.8-.8a11.15,11.15,0,0,0-1.22-2,1,1,0,0,1-.23-.51.93.93,0,0,1,1.14-.82C182.19,2,183.69,4.7,183.69,5.17Z" style="fill:#a24d25"/><path d="M189.37,12.69c0,.86-.42,1.42-1.52,1.42s-1.61-.46-1.61-1.42V4.83c0-.8.36-1.42,1.52-1.42s1.61.38,1.61,1.42Zm6-8.17c0-.84.42-1.42,1.52-1.42s1.61.44,1.61,1.42V9.65c0,3.17-.46,5.83-2.64,7.83a9.17,9.17,0,0,1-4.33,2.24A1.65,1.65,0,0,1,189.94,18c0-.78.42-1,1.61-1.54,3.17-1.48,3.78-3.91,3.78-6.4Z" style="fill:#a24d25"/><path d="M209.32,15.09c0,1.33.3,1.41,2.43,1.41,1.1,0,2.37-.06,2.91-.08.32,0,1.67-.11,2-.11.47,0,1.35.1,1.35,1.44,0,1.58-.76,1.67-5.91,1.67-2.94,0-5.79-.08-5.79-3.74V10.22l-2.89.21a1.36,1.36,0,0,1-1.65-1.5c0-1.1.7-1.41,1.46-1.44l3.08-.17V4.2c0-.7.27-1.41,1.48-1.41s1.58.51,1.58,1.41V7.13l6.29-.38.68,0c.32,0,1.82,0,1.82,1.42,0,1.1-1.27,2.77-2,3.67-1.46,1.94-2,2.22-2.6,2.22A1.5,1.5,0,0,1,212,12.66c0-.38.11-.49,1-1.6.23-.27.87-1,.87-1.27,0-.09,0-.09-.3-.08l-4.33.3Z" style="fill:#a24d25"/><path d="M236.89,9.35c0,1-2.64,4.48-6,6.84a18.5,18.5,0,0,1-7.73,3.29,1.66,1.66,0,0,1-1.61-1.79c0-1.08.65-1.23,1.73-1.5a18.06,18.06,0,0,0,10.18-6.93c.89-1.23,1.08-1.5,1.73-1.5A1.85,1.85,0,0,1,236.89,9.35ZM225.83,5.21c2,.93,2.51,1.33,2.51,2.15a1.67,1.67,0,0,1-1.52,1.71c-.32,0-.34,0-1.84-.8-.46-.23-2.47-1.12-2.85-1.37a1.13,1.13,0,0,1-.55-1,1.6,1.6,0,0,1,1.54-1.63A11.33,11.33,0,0,1,225.83,5.21Z" style="fill:#a24d25"/><path d="M252.28,4.22a1.85,1.85,0,0,1,2.15,1.84A17.38,17.38,0,0,1,251,14.4c-3,3.91-7.2,5.47-8.09,5.47a1.6,1.6,0,0,1-1.44-1.6c0-.83.68-1.14,1.2-1.35a14.74,14.74,0,0,0,5.09-3.4,43.76,43.76,0,0,0-4.37-2.79c-1.52,1.61-2.09,1.61-2.39,1.61a1.69,1.69,0,0,1-1.6-1.54c0-.61.42-.93.82-1.27A13.9,13.9,0,0,0,243.16,6c.93-1.56,1.1-1.82,2.89-1.82ZM247,7.11c-.55,0-.78.06-1,.25s-.67.91-.86,1.18a45.9,45.9,0,0,1,4.43,2.6A9.77,9.77,0,0,0,251,7.51c0-.4-.44-.4-.74-.4Z" style="fill:#a24d25"/><path d="M272.42,10a1.38,1.38,0,0,1,1.6,1.5,1.36,1.36,0,0,1-1.6,1.44h-13.6a1.36,1.36,0,0,1-1.6-1.42,1.37,1.37,0,0,1,1.6-1.52Z" style="fill:#a24d25"/></svg>